<svg width="1200" height="630" viewBox="0 0 1200 630" fill="none" xmlns="http://www.w3.org/2000/svg">
  <rect width="1200" height="630" rx="40" fill="#0D2437"/>
  <rect x="36" y="36" width="1128" height="558" rx="30" fill="url(#bg)"/>
  <circle cx="1018" cy="122" r="62" fill="#EA7B25"/>
  <path d="M986 122H1050" stroke="white" stroke-width="16" stroke-linecap="round"/>
  <path d="M1018 90V154" stroke="white" stroke-width="16" stroke-linecap="round"/>
  <text x="84" y="156" fill="#EAF2FB" font-family="Arial, Helvetica, sans-serif" font-size="30" font-weight="700">Demand Intelligence Dashboard</text>
  <text x="84" y="228" fill="white" font-family="Arial, Helvetica, sans-serif" font-size="68" font-weight="700">把公开市场信号</text>
  <text x="84" y="306" fill="white" font-family="Arial, Helvetica, sans-serif" font-size="68" font-weight="700">变成客群与产品决策</text>
  <text x="84" y="376" fill="#C8D9EC" font-family="Arial, Helvetica, sans-serif" font-size="28">面向业务线负责人：看高价值客群、趋势变化、产品包装与证据摘要</text>
  <rect x="84" y="436" width="296" height="94" rx="28" fill="rgba(255,255,255,0.12)"/>
  <text x="110" y="474" fill="#D5E7FA" font-family="Arial, Helvetica, sans-serif" font-size="22">推荐主产品</text>
  <text x="110" y="512" fill="white" font-family="Arial, Helvetica, sans-serif" font-size="32" font-weight="700">3PL &amp; Fulfillment Audit</text>
  <rect x="410" y="436" width="250" height="94" rx="28" fill="rgba(255,255,255,0.12)"/>
  <text x="436" y="474" fill="#D5E7FA" font-family="Arial, Helvetica, sans-serif" font-size="22">高价值客群</text>
  <text x="436" y="512" fill="white" font-family="Arial, Helvetica, sans-serif" font-size="28" font-weight="700">已出单 / 履约混乱</text>
  <rect x="690" y="436" width="210" height="94" rx="28" fill="rgba(255,255,255,0.12)"/>
  <text x="716" y="474" fill="#D5E7FA" font-family="Arial, Helvetica, sans-serif" font-size="22">Opportunity</text>
  <text x="716" y="512" fill="white" font-family="Arial, Helvetica, sans-serif" font-size="34" font-weight="700">86 / 100</text>
  <rect x="932" y="436" width="170" height="94" rx="28" fill="rgba(255,255,255,0.12)"/>
  <text x="958" y="474" fill="#D5E7FA" font-family="Arial, Helvetica, sans-serif" font-size="22">Trend</text>
  <text x="958" y="512" fill="white" font-family="Arial, Helvetica, sans-serif" font-size="34" font-weight="700">+38%</text>
  <defs>
    <linearGradient id="bg" x1="86" y1="36" x2="1088" y2="594" gradientUnits="userSpaceOnUse">
      <stop stop-color="#153955"/>
      <stop offset="1" stop-color="#234C8D"/>
    </linearGradient>
  </defs>
</svg>
